<svg width="1920" height="1556" viewBox="0 0 1920 1556" fill="none" xmlns="http://www.w3.org/2000/svg">
<circle cx="215.695" cy="714.822" r="75" transform="rotate(-40.1629 215.695 714.822)" fill="url(#paint0_linear_84_2)"/>
<circle cx="525.414" cy="1218.39" r="104.5" transform="rotate(-156.908 525.414 1218.39)" fill="url(#paint1_linear_84_2)"/>
<circle cx="1371.09" cy="276.551" r="104.5" transform="rotate(45.0491 1371.09 276.551)" fill="url(#paint2_linear_84_2)"/>
<circle cx="1706.68" cy="466.329" r="50.0537" transform="rotate(65.9198 1706.68 466.329)" fill="url(#paint3_linear_84_2)"/>
<circle cx="548.646" cy="464.191" r="50.0537" transform="rotate(-34.6837 548.646 464.191)" fill="url(#paint4_linear_84_2)"/>
<ellipse cx="76.0845" cy="346.505" rx="73.0229" ry="70.1206" transform="rotate(-18.0751 76.0845 346.505)" fill="url(#paint5_linear_84_2)"/>
<circle cx="1435.06" cy="1265.52" r="69.5977" transform="rotate(97.9531 1435.06 1265.52)" fill="url(#paint6_linear_84_2)"/>
<circle cx="1738.28" cy="862.61" r="106.566" transform="rotate(76.5391 1738.28 862.61)" fill="url(#paint7_linear_84_2)"/>
<defs>
<linearGradient id="paint0_linear_84_2" x1="215.695" y1="639.822" x2="215.695" y2="789.822" gradientUnits="userSpaceOnUse">
<stop stop-color="#BF113F"/>
<stop offset="1" stop-color="#E000C9"/>
</linearGradient>
<linearGradient id="paint1_linear_84_2" x1="525.414" y1="1113.89" x2="525.414" y2="1322.89" gradientUnits="userSpaceOnUse">
<stop stop-color="#0A0D68"/>
<stop offset="1" stop-color="#9012DD"/>
</linearGradient>
<linearGradient id="paint2_linear_84_2" x1="1371.09" y1="172.051" x2="1371.09" y2="381.051" gradientUnits="userSpaceOnUse">
<stop stop-color="#070A67"/>
<stop offset="1" stop-color="#9C12DD"/>
</linearGradient>
<linearGradient id="paint3_linear_84_2" x1="1706.68" y1="416.275" x2="1706.68" y2="516.383" gradientUnits="userSpaceOnUse">
<stop stop-color="#BF113F"/>
<stop offset="1" stop-color="#DD12B0"/>
</linearGradient>
<linearGradient id="paint4_linear_84_2" x1="548.646" y1="414.138" x2="548.646" y2="514.245" gradientUnits="userSpaceOnUse">
<stop stop-color="#002583"/>
<stop offset="1" stop-color="#9012DD"/>
</linearGradient>
<linearGradient id="paint5_linear_84_2" x1="76.0845" y1="276.385" x2="76.0845" y2="416.626" gradientUnits="userSpaceOnUse">
<stop stop-color="#002585"/>
<stop offset="1" stop-color="#9012DD"/>
</linearGradient>
<linearGradient id="paint6_linear_84_2" x1="1435.06" y1="1195.92" x2="1435.06" y2="1335.12" gradientUnits="userSpaceOnUse">
<stop stop-color="#BF113F"/>
<stop offset="1" stop-color="#DD12BD"/>
</linearGradient>
<linearGradient id="paint7_linear_84_2" x1="1738.28" y1="756.044" x2="1738.28" y2="969.175" gradientUnits="userSpaceOnUse">
<stop stop-color="#000695"/>
<stop offset="1" stop-color="#9012DD"/>
</linearGradient>
</defs>
</svg>
