<svg width="1951" height="1193" viewBox="0 0 1951 1193" fill="none" xmlns="http://www.w3.org/2000/svg">
<rect y="0.317383" width="1950.03" height="1192.14" fill="#05073B"/>
<ellipse cx="75.8602" cy="76.0841" rx="75.8602" ry="76.0841" transform="matrix(0.767367 -0.644211 0.645716 0.761077 111.727 551.814)" fill="url(#paint0_linear_259_17)"/>
<ellipse cx="106.573" cy="105.149" rx="106.573" ry="105.149" transform="matrix(-0.99802 0.00323945 -0.0135526 -1.00186 641.42 1174.6)" fill="url(#paint1_linear_259_17)"/>
<path d="M1485.44 113.087C1485.84 170.994 1438.32 217.609 1379.3 217.205C1320.27 216.801 1272.1 169.53 1271.69 111.623C1268.14 51.6352 1318.81 7.10013 1377.84 7.50438C1436.86 7.90863 1485.04 55.1794 1485.44 113.087Z" fill="url(#paint2_linear_259_17)"/>
<ellipse cx="105.789" cy="105.919" rx="105.789" ry="105.919" transform="matrix(0.835576 -0.55237 0.554615 0.830155 1079.54 488.201)" fill="url(#paint3_linear_259_17)"/>
<ellipse cx="50.6677" cy="50.7368" rx="50.6677" ry="50.7368" transform="matrix(0.409376 0.911194 -0.914773 0.406665 1759.05 242.999)" fill="url(#paint4_linear_259_17)"/>
<ellipse cx="50.6639" cy="50.7408" rx="50.6639" ry="50.7408" transform="matrix(0.82511 -0.567978 0.570121 0.81952 486.496 294.832)" fill="url(#paint5_linear_259_17)"/>
<ellipse cx="74.2147" cy="70.7957" rx="74.2147" ry="70.7957" transform="matrix(1.00058 -0.0137707 0.00599167 0.999326 2.59424 119.017)" fill="url(#paint6_linear_259_17)"/>
<ellipse cx="70.2107" cy="70.7927" rx="70.2107" ry="70.7927" transform="matrix(0.00456668 1.0012 -0.998763 0.000677006 1527.89 1046.88)" fill="url(#paint7_linear_259_17)"/>
<ellipse cx="70.2361" cy="70.7667" rx="70.2361" ry="70.7667" transform="matrix(-0.139249 0.991478 -0.989256 -0.137477 866.46 667.699)" fill="url(#paint8_linear_259_17)"/>
<ellipse cx="107.728" cy="108.166" rx="107.728" ry="108.166" transform="matrix(0.233872 0.971938 -0.973125 0.231697 1845.54 580.393)" fill="url(#paint9_linear_259_17)"/>
<defs>
<linearGradient id="paint0_linear_259_17" x1="75.8602" y1="0" x2="75.8602" y2="152.168" gradientUnits="userSpaceOnUse">
<stop stop-color="#BF113F"/>
<stop offset="1" stop-color="#E000C9"/>
</linearGradient>
<linearGradient id="paint1_linear_259_17" x1="106.573" y1="0" x2="106.573" y2="210.299" gradientUnits="userSpaceOnUse">
<stop stop-color="#0A0D68"/>
<stop offset="1" stop-color="#9012DD"/>
</linearGradient>
<linearGradient id="paint2_linear_259_17" x1="1377.84" y1="7.50472" x2="1376.4" y2="217.186" gradientUnits="userSpaceOnUse">
<stop stop-color="#070A67"/>
<stop offset="1" stop-color="#9C12DD"/>
</linearGradient>
<linearGradient id="paint3_linear_259_17" x1="105.789" y1="0" x2="105.789" y2="211.838" gradientUnits="userSpaceOnUse">
<stop stop-color="#070A67"/>
<stop offset="1" stop-color="#9C12DD"/>
</linearGradient>
<linearGradient id="paint4_linear_259_17" x1="50.6677" y1="0" x2="50.6677" y2="101.474" gradientUnits="userSpaceOnUse">
<stop stop-color="#BF113F"/>
<stop offset="1" stop-color="#DD12B0"/>
</linearGradient>
<linearGradient id="paint5_linear_259_17" x1="50.6639" y1="0" x2="50.6639" y2="101.482" gradientUnits="userSpaceOnUse">
<stop stop-color="#002583"/>
<stop offset="1" stop-color="#9012DD"/>
</linearGradient>
<linearGradient id="paint6_linear_259_17" x1="74.2147" y1="0" x2="74.2147" y2="141.591" gradientUnits="userSpaceOnUse">
<stop stop-color="#002585"/>
<stop offset="1" stop-color="#9012DD"/>
</linearGradient>
<linearGradient id="paint7_linear_259_17" x1="70.2107" y1="0" x2="70.2107" y2="141.585" gradientUnits="userSpaceOnUse">
<stop stop-color="#BF113F"/>
<stop offset="1" stop-color="#DD12BD"/>
</linearGradient>
<linearGradient id="paint8_linear_259_17" x1="70.2361" y1="0" x2="70.2361" y2="141.533" gradientUnits="userSpaceOnUse">
<stop stop-color="#BF113F"/>
<stop offset="1" stop-color="#DD12BD"/>
</linearGradient>
<linearGradient id="paint9_linear_259_17" x1="107.728" y1="0" x2="107.728" y2="216.332" gradientUnits="userSpaceOnUse">
<stop stop-color="#000695"/>
<stop offset="1" stop-color="#9012DD"/>
</linearGradient>
</defs>
</svg>
