<svg width="163" height="170" viewBox="0 0 163 170" fill="none" xmlns="http://www.w3.org/2000/svg">
<path d="M37.2909 14.3107L37.5834 4.13131L48.2392 5.99035L92.609 55.6342L73.6815 55.458L37.2909 14.3107Z" fill="url(#paint0_linear_194_8)"/>
<path fill-rule="evenodd" clip-rule="evenodd" d="M0.957496 50.7004L9.80784 50.7835L9.80788 50.8248L35.8293 51.1424L39.8594 56.0583L35.8628 60.6854L9.81669 60.3675L9.88166 130.666L9.80828 130.734L44.2273 154.106L44.3131 169.016L0.700125 139.206L0.717392 139.179L0.696049 139.199L0.957496 50.7004Z" fill="url(#paint1_linear_194_8)"/>
<path fill-rule="evenodd" clip-rule="evenodd" d="M45.138 75.8812L39.8783 67.0846L34.2459 75.7999L34.0984 100.99L34.0489 100.989L34.0174 114.814L33.887 137.089L33.9665 137.182L33.9098 162.07L44.4313 168.994L44.5919 149.59L44.7564 149.782L45.1077 89.788L92.6072 55.6321L73.4041 55.2025L45.138 75.8812Z" fill="url(#paint2_linear_194_8)"/>
<path d="M67.8443 115.688L68.0891 91.899L78.1401 91.8524C80.0005 91.8316 81.3961 92.266 82.3269 93.1556C83.258 94.0252 83.7149 95.31 83.6974 97.0099L83.6473 101.87C83.6309 103.47 83.1478 104.735 82.1982 105.665C81.2488 106.575 79.8441 107.021 77.9842 107.002L71.7146 106.937L71.6241 115.727L67.8443 115.688ZM79.3661 95.1652L71.8365 95.0878L71.7482 103.667L79.2778 103.745C79.5978 103.748 79.7594 103.59 79.7627 103.27L79.8411 95.6502C79.8444 95.3302 79.6861 95.1685 79.3661 95.1652ZM86.8478 115.883L87.1078 90.6247L90.7676 90.6623L90.5076 115.921L86.8478 115.883ZM98.2555 116.271C96.7555 116.255 95.6586 115.954 94.9646 115.367C94.2908 114.76 93.9617 113.696 93.9774 112.177L94.0052 109.477C94.0216 107.877 94.393 106.77 95.1194 106.158C95.8659 105.526 97.0891 105.218 98.7891 105.236L103.499 105.284L103.542 101.114C103.544 100.854 103.416 100.723 103.156 100.72L95.2059 100.669L95.2377 97.5787L102.377 97.6522C104.097 97.6499 105.334 97.9926 106.087 98.6804C106.84 99.3482 107.208 100.512 107.191 102.172L107.048 116.091L103.778 116.058L103.499 113.985C103.331 114.763 102.975 115.349 102.431 115.744C101.907 116.118 101.155 116.301 100.175 116.291L98.2555 116.271ZM103.415 113.384L103.472 107.924L98.0119 107.868C97.7519 107.865 97.6206 107.994 97.6179 108.254L97.5701 112.904C97.5672 113.183 97.6958 113.325 97.9557 113.328L103.415 113.384ZM120.124 120.156L120.182 114.576C119.748 115.852 118.672 116.481 116.952 116.463L114.822 116.441C113.322 116.426 112.225 116.124 111.531 115.537C110.837 114.93 110.498 113.867 110.514 112.347L110.664 97.7675L114.294 97.8048L114.137 113.074C114.134 113.354 114.272 113.495 114.552 113.498L120.192 113.556L120.324 97.8669L123.953 97.9042L123.765 119.083C123.748 120.743 123.326 121.919 122.499 122.611C121.692 123.302 120.388 123.639 118.588 123.62L110.999 123.542L111.03 120.482L119.73 120.572C119.99 120.575 120.121 120.436 120.124 120.156ZM128.437 94.6802L128.471 91.3204L132.131 91.358L132.097 94.7178L128.437 94.6802ZM128.214 116.309L128.403 97.95L132.063 97.9877L131.874 116.347L128.214 116.309ZM141.473 93.9443C141.213 93.9416 141.082 94.0703 141.079 94.3303L141.041 98.0801L145.6 98.127L145.571 100.977L141.011 100.93L140.852 116.439L137.222 116.402L137.382 100.893L135.252 100.871L135.281 98.0208L137.411 98.0427L137.439 95.3129C137.456 93.6529 137.848 92.4969 138.615 91.8448C139.382 91.1726 140.615 90.8553 142.315 90.8928L146.335 90.9342L146.303 93.994L141.473 93.9443ZM156.86 120.534L156.918 114.954C156.485 116.23 155.408 116.859 153.688 116.841L151.558 116.819C150.059 116.804 148.962 116.503 148.268 115.915C147.574 115.308 147.235 114.245 147.25 112.725L147.4 98.1455L151.03 98.1829L150.873 113.452C150.87 113.732 151.009 113.873 151.289 113.876L156.928 113.934L157.06 98.2449L160.69 98.2823L160.502 119.461C160.485 121.121 160.063 122.297 159.235 122.989C158.428 123.68 157.125 124.017 155.325 123.998L147.735 123.92L147.767 120.86L156.466 120.95C156.726 120.953 156.858 120.814 156.86 120.534Z" fill="white"/>
<defs>
<linearGradient id="paint0_linear_194_8" x1="35.4568" y1="5.74744" x2="34.3466" y2="57.2126" gradientUnits="userSpaceOnUse">
<stop offset="0.04" stop-color="#203F59"/>
<stop offset="0.301" stop-color="#33648E"/>
<stop offset="0.64" stop-color="#4587BF"/>
</linearGradient>
<linearGradient id="paint1_linear_194_8" x1="19.6197" y1="168.692" x2="9.04308" y2="52.503" gradientUnits="userSpaceOnUse">
<stop offset="0.205" stop-color="#1E3955"/>
<stop offset="0.92" stop-color="#427DBB"/>
</linearGradient>
<linearGradient id="paint2_linear_194_8" x1="63.513" y1="55.0727" x2="62.015" y2="169.224" gradientUnits="userSpaceOnUse">
<stop offset="0.276" stop-color="#BF113F"/>
<stop offset="1" stop-color="#400615"/>
</linearGradient>
</defs>
</svg>
